<svg xmlns="http://www.w3.org/2000/svg" width="375" viewBox="0 0 375 375" height="375" version="1.0"><path fill="#FA7C91" d="M 375 187.503906 C 375 291.050781 291.050781 375 187.5 375 C 83.945312 375 0 291.050781 0 187.503906 C 0 83.949219 83.945312 0 187.5 0 C 291.054688 0 375 83.949219 375 187.503906 Z M 375 187.503906"/><g fill="#FFF"><g><g><path d="M 16.921875 -46.421875 L 1.1875 -46.421875 L 1.1875 -55.078125 L 41.78125 -55.078125 L 41.78125 -46.421875 L 26.046875 -46.421875 L 26.046875 0 L 16.921875 0 Z M 16.921875 -46.421875" transform="translate(111.032 134.834)"/></g></g></g><g fill="#FFF"><g><g><path d="M 6.140625 -55.078125 L 15.265625 -55.078125 L 15.265625 -32.96875 L 41.453125 -32.96875 L 41.453125 -55.078125 L 50.59375 -55.078125 L 50.59375 0 L 41.453125 0 L 41.453125 -24.390625 L 15.265625 -24.390625 L 15.265625 0 L 6.140625 0 Z M 6.140625 -55.078125" transform="translate(158.7 134.834)"/></g></g></g><g fill="#FFF"><g><g><path d="M 6.140625 -55.078125 L 40.75 -55.078125 L 40.75 -46.421875 L 15.421875 -46.421875 L 15.421875 -33.046875 L 35.328125 -33.046875 L 35.328125 -24.390625 L 15.421875 -24.390625 L 15.421875 -8.65625 L 41.53125 -8.65625 L 41.53125 0 L 6.140625 0 Z M 6.140625 -55.078125" transform="translate(220.133 134.834)"/></g></g></g><g fill="#FFF"><g><g><path d="M 6.140625 -55.078125 L 26.671875 -55.078125 C 31.960938 -55.078125 36.664062 -53.972656 40.78125 -51.765625 C 44.90625 -49.566406 48.117188 -46.394531 50.421875 -42.25 C 52.734375 -38.101562 53.890625 -33.195312 53.890625 -27.53125 C 53.890625 -21.863281 52.734375 -16.957031 50.421875 -12.8125 C 48.117188 -8.675781 44.90625 -5.503906 40.78125 -3.296875 C 36.664062 -1.097656 31.960938 0 26.671875 0 L 6.140625 0 Z M 26.671875 -8.1875 C 32.285156 -8.1875 36.5625 -9.898438 39.5 -13.328125 C 42.4375 -16.765625 43.90625 -21.5 43.90625 -27.53125 C 43.90625 -33.5625 42.4375 -38.296875 39.5 -41.734375 C 36.5625 -45.171875 32.285156 -46.890625 26.671875 -46.890625 L 15.265625 -46.890625 L 15.265625 -8.1875 Z M 26.671875 -8.1875" transform="translate(108.2 217.087)"/></g></g></g><g fill="#FFF"><g><g><path d="M 6.140625 -55.078125 L 40.75 -55.078125 L 40.75 -46.421875 L 15.421875 -46.421875 L 15.421875 -33.046875 L 35.328125 -33.046875 L 35.328125 -24.390625 L 15.421875 -24.390625 L 15.421875 -8.65625 L 41.53125 -8.65625 L 41.53125 0 L 6.140625 0 Z M 6.140625 -55.078125" transform="translate(169.79 217.087)"/></g></g></g><g fill="#FFF"><g><g><path d="M 48.296875 -55.078125 L 28.71875 0 L 19.75 0 L 0.078125 -55.078125 L 9.4375 -55.078125 L 24.234375 -13.0625 L 39.015625 -55.078125 Z M 48.296875 -55.078125" transform="translate(218.796 217.087)"/></g></g></g><g fill="#FFF"><g><g><path d="M 6.140625 -55.078125 L 15.265625 -55.078125 L 15.265625 -8.1875 L 38.859375 -8.1875 L 38.859375 0 L 6.140625 0 Z M 6.140625 -55.078125" transform="translate(107.076 299.34)"/></g></g></g><g fill="#FFF"><g><g><path d="M 30.046875 1.09375 C 24.804688 1.09375 20.140625 -0.0820312 16.046875 -2.4375 C 11.953125 -4.800781 8.738281 -8.144531 6.40625 -12.46875 C 4.070312 -16.789062 2.90625 -21.8125 2.90625 -27.53125 C 2.90625 -33.25 4.070312 -38.269531 6.40625 -42.59375 C 8.738281 -46.925781 11.953125 -50.269531 16.046875 -52.625 C 20.140625 -54.988281 24.804688 -56.171875 30.046875 -56.171875 C 35.296875 -56.171875 39.960938 -54.988281 44.046875 -52.625 C 48.140625 -50.269531 51.351562 -46.925781 53.6875 -42.59375 C 56.019531 -38.269531 57.1875 -33.25 57.1875 -27.53125 C 57.1875 -21.8125 56.019531 -16.789062 53.6875 -12.46875 C 51.351562 -8.144531 48.140625 -4.800781 44.046875 -2.4375 C 39.960938 -0.0820312 35.296875 1.09375 30.046875 1.09375 Z M 30.046875 -7.703125 C 35.660156 -7.703125 39.972656 -9.535156 42.984375 -13.203125 C 46.003906 -16.878906 47.515625 -21.65625 47.515625 -27.53125 C 47.515625 -33.40625 46.003906 -38.175781 42.984375 -41.84375 C 39.972656 -45.519531 35.660156 -47.359375 30.046875 -47.359375 C 24.441406 -47.359375 20.117188 -45.519531 17.078125 -41.84375 C 14.035156 -38.175781 12.515625 -33.40625 12.515625 -27.53125 C 12.515625 -21.65625 14.035156 -16.878906 17.078125 -13.203125 C 20.117188 -9.535156 24.441406 -7.703125 30.046875 -7.703125 Z M 30.046875 -7.703125" transform="translate(151.126 299.34)"/></g></g></g><g fill="#FFF"><g><g><path d="M 30.375 1.09375 C 24.863281 1.09375 20.019531 -0.0820312 15.84375 -2.4375 C 11.675781 -4.800781 8.460938 -8.144531 6.203125 -12.46875 C 3.953125 -16.789062 2.828125 -21.835938 2.828125 -27.609375 C 2.828125 -33.273438 4.046875 -38.269531 6.484375 -42.59375 C 8.929688 -46.925781 12.328125 -50.269531 16.671875 -52.625 C 21.023438 -54.988281 25.984375 -56.171875 31.546875 -56.171875 C 34.378906 -56.171875 37.128906 -55.878906 39.796875 -55.296875 C 42.472656 -54.722656 44.8125 -53.941406 46.8125 -52.953125 L 45.859375 -44.53125 C 41.140625 -46.519531 36.394531 -47.515625 31.625 -47.515625 C 25.4375 -47.515625 20.753906 -45.691406 17.578125 -42.046875 C 14.410156 -38.398438 12.828125 -33.613281 12.828125 -27.6875 C 12.828125 -21.601562 14.410156 -16.722656 17.578125 -13.046875 C 20.753906 -9.378906 25.359375 -7.546875 31.390625 -7.546875 C 34.117188 -7.546875 36.820312 -7.890625 39.5 -8.578125 L 39.5 -19.828125 L 31.546875 -19.828125 L 31.546875 -27.609375 L 48.625 -27.609375 L 48.625 -3.0625 C 46.46875 -1.863281 43.800781 -0.867188 40.625 -0.078125 C 37.457031 0.703125 34.039062 1.09375 30.375 1.09375 Z M 30.375 1.09375" transform="translate(215.941 299.34)"/></g></g></g></svg>